<?xml version="1.0" standalone="no"?>
<!DOCTYPE svg PUBLIC "-//W3C//DTD SVG 20010904//EN"
 "http://www.w3.org/TR/2001/REC-SVG-20010904/DTD/svg10.dtd">
<svg version="1.0" xmlns="http://www.w3.org/2000/svg"
 width="1200.000000pt" height="1200.000000pt" viewBox="0 0 1200.000000 1200.000000"
 preserveAspectRatio="xMidYMid meet">

<g transform="translate(0.000000,1200.000000) scale(0.100000,-0.100000)"
fill="#000000" stroke="none">
<path d="M6255 8190 c-115 -115 -215 -210 -220 -210 -6 0 -31 -20 -55 -45 -24
-25 -53 -45 -65 -45 -13 -1 -130 -108 -324 -298 l-305 -298 200 -163 c207
-169 542 -425 749 -573 263 -187 521 -353 529 -340 15 26 70 222 90 324 104
518 16 1080 -254 1633 -83 169 -115 225 -127 225 -5 0 -103 -94 -218 -210z"/>
<path d="M4977 7032 c-42 -42 -77 -80 -77 -84 0 -15 639 -459 735 -511 11 -5
-17 30 -61 79 -129 141 -311 349 -418 477 -54 64 -99 117 -100 117 -1 0 -36
-35 -79 -78z"/>
<path d="M4455 6570 c-98 -98 -136 -130 -155 -130 -19 0 -64 -37 -177 -145
-122 -117 -157 -145 -180 -145 -24 0 -73 -45 -308 -280 -258 -258 -283 -280
-314 -280 -19 0 -43 -7 -53 -17 -17 -15 -14 -19 65 -66 376 -227 779 -376
1202 -444 158 -25 595 -26 746 0 138 23 301 66 425 112 99 37 314 143 314 154
-1 3 -45 41 -99 83 -360 283 -866 768 -1227 1175 -54 61 -101 112 -104 112 -3
1 -64 -57 -135 -129z"/>
<path d="M0 2210 l0 -2210 5995 0 5995 0 0 2210 0 2210 -1842 0 -1843 0 4
-122 c3 -136 -12 -247 -38 -280 -23 -27 -32 -21 -77 55 -90 150 -201 257 -329
318 l-60 29 -262 0 c-257 0 -263 -1 -335 -26 -40 -14 -136 -59 -213 -99 -77
-40 -192 -93 -255 -118 -651 -259 -1482 -190 -2234 184 l-119 59 -2193 0
-2194 0 0 -2210z"/>
</g>
</svg>
